<svg width="42" height="50" viewBox="0 0 42 50" fill="none" xmlns="http://www.w3.org/2000/svg">
<g clip-path="url(#clip0_504_3569)">
<path d="M6.52172 9.64036V21.8209C6.50128 26.3646 7.8343 30.8116 10.3509 34.5949C12.8675 38.3781 16.4536 41.3264 20.6522 43.0637C24.8506 41.3263 28.4367 38.378 30.9533 34.5948C33.4699 30.8115 34.8029 26.3646 34.7826 21.8209V9.63933L20.6628 6.66455L6.52172 9.64036ZM24.2718 23.04L25.7165 28.8203C25.7968 29.1408 25.803 29.4754 25.7345 29.7987C25.666 30.122 25.5247 30.4254 25.3214 30.6859C25.118 30.9463 24.8579 31.157 24.5609 31.3018C24.2639 31.4467 23.9378 31.5219 23.6073 31.5217C17.605 31.5217 16.8547 31.8028 15.9832 30.6859C15.1138 29.573 15.5319 29.0424 17.033 23.04C16.6006 22.3859 16.3534 21.6268 16.3178 20.8435C16.2821 20.0601 16.4592 19.2818 16.8304 18.591C17.2015 17.9002 17.7528 17.3229 18.4257 16.9203C19.0986 16.5177 19.868 16.3048 20.6522 16.3043C21.4362 16.305 22.2055 16.5179 22.8784 16.9205C23.5512 17.3232 24.1025 17.9004 24.4736 18.5911C24.8448 19.2818 25.022 20.0601 24.9865 20.8434C24.9509 21.6267 24.704 22.3857 24.2718 23.04Z" fill="white"/>
<path d="M18.4783 20.6522C18.4783 21.9887 19.5131 22.0817 19.2686 23.0612L17.6965 29.3478H23.6085L22.0364 23.0612C21.7901 22.0805 22.8262 21.9926 22.8262 20.6522C22.8255 20.0758 22.5963 19.5233 22.1887 19.1157C21.7812 18.7082 21.2286 18.4789 20.6523 18.4783C20.0759 18.4788 19.5233 18.7081 19.1157 19.1156C18.7081 19.5232 18.4789 20.0758 18.4783 20.6522Z" fill="white"/>
<path d="M20.6634 0L0 4.34783V21.8208C1.13891e-05 28.1031 2.00217 34.222 5.71584 39.2892C9.42952 44.3564 14.6614 48.1082 20.6522 50C26.6429 48.1082 31.8748 44.3564 35.5885 39.2892C39.3022 34.222 41.3043 28.1031 41.3043 21.8208V4.34783L20.6634 0ZM36.9565 21.8209C36.9789 26.8746 35.4717 31.8168 32.6331 35.998C29.7944 40.1792 25.7571 43.4037 21.0518 45.2477C19.0001 46.0532 4.34783 37.9098 4.34783 21.8209V8.75828C4.3477 8.50886 4.43342 8.26701 4.59057 8.07333C4.74772 7.87964 4.96672 7.74594 5.21081 7.69468C21.7913 4.20544 20.5558 4.42006 20.8868 4.49006L36.0935 7.69361C36.3376 7.74503 36.5565 7.87877 36.7136 8.07241C36.8707 8.26606 36.9565 8.50784 36.9565 8.75722V21.8209Z" fill="white"/>
</g>
<defs>
<clipPath id="clip0_504_3569">
<rect width="41.3043" height="50" fill="white"/>
</clipPath>
</defs>
</svg>
