<svg width="50" height="50" viewBox="0 0 50 50" fill="none" xmlns="http://www.w3.org/2000/svg">
<g clip-path="url(#clip0_504_3563)">
<path d="M43.056 17.5659C42.7192 16.7756 42.5674 15.9187 42.6122 15.0608C42.6569 14.2028 42.8971 13.3664 43.3142 12.6154C45.2117 9.19977 44.8679 9.54901 41.5137 6.1947C39.1125 3.79372 37.2398 8.92987 32.4716 6.9595C27.8358 5.04379 29.919 0.0213234 26.6097 0.0213234C21.9259 0.0213234 21.8705 -0.47054 20.8015 3.27037C20.5654 4.09328 20.1465 4.85226 19.5761 5.49073C19.0058 6.12919 18.2987 6.63068 17.5075 6.95778C16.7163 7.28488 15.8615 7.42916 15.0068 7.37987C14.1521 7.33058 13.3196 7.08898 12.5713 6.67309C9.09866 4.74374 9.40923 5.2504 6.17346 8.48626C3.75569 10.9038 8.907 12.7639 6.93674 17.5319C5.02099 22.1679 0 20.0677 0 23.3902V26.631C0 30.0684 4.96457 27.7102 6.94669 32.5135C8.85891 37.1412 3.81893 39.1806 6.17346 41.5349C9.49239 44.854 9.17231 45.2365 12.5941 43.3354C13.3435 42.9191 14.178 42.6792 15.0341 42.6337C15.8902 42.5883 16.7454 42.7386 17.5347 43.0732C22.1624 44.9855 20.0393 50 23.369 50H26.6097C30.0414 50 27.6908 45.0384 32.4923 43.0532C37.12 41.1411 39.1592 46.1808 41.5137 43.8265C44.8327 40.5075 45.2152 40.8277 43.3142 37.4059C42.8971 36.6548 42.6569 35.8184 42.6122 34.9605C42.5674 34.1025 42.7192 33.2457 43.056 32.4553C44.9693 27.8252 49.9787 29.9758 49.9787 26.631V23.3902C49.9787 19.9707 45.0062 22.2853 43.056 17.5659ZM24.9893 39.1351C21.2433 39.1351 17.6507 37.647 15.0019 34.9981C12.353 32.3493 10.8649 28.7567 10.8649 25.0107C10.8649 21.2646 12.353 17.672 15.0019 15.0232C17.6507 12.3743 21.2433 10.8862 24.9893 10.8862C28.7354 10.8862 32.328 12.3743 34.9768 15.0232C37.6256 17.672 39.1138 21.2646 39.1138 25.0107C39.1138 28.7567 37.6256 32.3493 34.9768 34.9981C32.328 37.647 28.7354 39.1351 24.9893 39.1351Z" fill="white"/>
<path d="M21.1769 16.8525L32.396 25.0002L21.1769 33.1478V16.8525Z" fill="white"/>
</g>
<defs>
<clipPath id="clip0_504_3563">
<rect width="49.9787" height="50" fill="white"/>
</clipPath>
</defs>
</svg>
