<svg width="41" height="50" viewBox="0 0 41 50" fill="none" xmlns="http://www.w3.org/2000/svg">
<g clip-path="url(#clip0_504_3554)">
<path d="M29.7877 30.8512H28.7234V26.5958C28.7234 24.3386 27.8268 22.1739 26.2307 20.5779C24.6346 18.9819 22.4699 18.0852 20.2128 18.0852C17.9556 18.0852 15.7909 18.9819 14.1949 20.5779C12.5988 22.174 11.7022 24.3387 11.7022 26.5958H15.9575C15.9575 25.4673 16.4058 24.3849 17.2038 23.5869C18.0019 22.7888 19.0842 22.3405 20.2128 22.3405C21.3414 22.3405 22.4237 22.7888 23.2218 23.5869C24.0198 24.3849 24.4681 25.4673 24.4681 26.5958V30.8511L10.6376 30.8508C9.79119 30.8508 8.97942 31.1871 8.38089 31.7856C7.78236 32.3841 7.4461 33.1958 7.44606 34.0423C7.446 37.2966 7.44593 43.5626 7.4458 46.8082C7.44579 47.2273 7.52833 47.6423 7.68871 48.0296C7.84909 48.4168 8.08416 48.7686 8.38052 49.065C8.67687 49.3613 9.0287 49.5964 9.41591 49.7568C9.80311 49.9172 10.2181 49.9998 10.6372 49.9998L29.7873 50.0001C30.2064 50.0001 30.6214 49.9176 31.0086 49.7572C31.3958 49.5968 31.7476 49.3617 32.044 49.0654C32.3404 48.769 32.5755 48.4172 32.7359 48.03C32.8963 47.6428 32.9788 47.2278 32.9788 46.8087C32.9789 43.5631 32.979 37.297 32.9791 34.0427C32.9791 33.6236 32.8966 33.2086 32.7362 32.8214C32.5758 32.4342 32.3407 32.0823 32.0444 31.786C31.748 31.4896 31.3962 31.2545 31.009 31.0941C30.6218 30.9337 30.2068 30.8512 29.7877 30.8512ZM21.2761 40.1297V43.6171C21.2761 43.8993 21.164 44.1699 20.9645 44.3694C20.765 44.5689 20.4944 44.681 20.2123 44.681C19.9301 44.681 19.6595 44.5689 19.46 44.3694C19.2605 44.1699 19.1484 43.8993 19.1484 43.6171V40.1297C18.745 39.8953 18.43 39.5344 18.2522 39.1029C18.0744 38.6715 18.0436 38.1935 18.1647 37.7428C18.2858 37.2921 18.552 36.8939 18.9221 36.6097C19.2922 36.3254 19.7456 36.171 20.2123 36.1703C20.6791 36.1708 21.1327 36.325 21.503 36.6093C21.8732 36.8935 22.1395 37.2918 22.2607 37.7426C22.3818 38.1934 22.351 38.6715 22.173 39.103C21.995 39.5346 21.6798 39.8954 21.2761 40.1297Z" fill="white"/>
<path d="M34.2387 12.766H31.915C31.328 12.766 31.4529 12.7876 27.9714 16.2691C27.8231 16.4181 27.7223 16.6076 27.6816 16.8138C27.6408 17.02 27.662 17.2335 27.7424 17.4277C27.8228 17.6219 27.9589 17.7879 28.1335 17.9049C28.308 18.0218 28.5133 18.0846 28.7235 18.0851C29.3099 18.0851 29.2225 18.0266 32.3555 14.8936H34.2387C34.4908 15.6002 34.9842 16.1952 35.6319 16.5738C36.2796 16.9523 37.0401 17.0902 37.7795 16.9631C38.5188 16.8359 39.1896 16.452 39.6737 15.8788C40.1578 15.3056 40.424 14.58 40.4256 13.8298C40.4241 13.0795 40.1579 12.3538 39.6738 11.7806C39.1897 11.2074 38.5189 10.8234 37.7795 10.6962C37.0401 10.5691 36.2795 10.707 35.6317 11.0856C34.984 11.4642 34.4907 12.0593 34.2387 12.766ZM37.2341 14.8936C36.952 14.8936 36.6814 14.7815 36.4819 14.582C36.2824 14.3825 36.1703 14.1119 36.1703 13.8298C36.1703 13.5476 36.2824 13.2771 36.4819 13.0775C36.6814 12.878 36.952 12.766 37.2341 12.766C37.5163 12.766 37.7869 12.878 37.9864 13.0775C38.1859 13.2771 38.2979 13.5476 38.2979 13.8298C38.2979 14.1119 38.1859 14.3825 37.9864 14.582C37.7869 14.7815 37.5163 14.8936 37.2341 14.8936Z" fill="white"/>
<path d="M15.9573 8.31457V13.8298C15.9573 14.112 16.0694 14.3825 16.2689 14.5821C16.4684 14.7816 16.739 14.8936 17.0212 14.8936C17.3033 14.8936 17.5739 14.7816 17.7734 14.5821C17.9729 14.3825 18.085 14.112 18.085 13.8298V8.31464C18.7915 8.06248 19.3864 7.56911 19.7649 6.92141C20.1434 6.27372 20.2813 5.51324 20.1541 4.77392C20.027 4.03459 19.6431 3.36383 19.07 2.87977C18.4969 2.3957 17.7714 2.12937 17.0212 2.12769C16.2709 2.12919 15.5452 2.39543 14.972 2.87949C14.3988 3.36355 14.0148 4.03437 13.8876 4.77379C13.7605 5.5132 13.8984 6.27377 14.277 6.92149C14.6556 7.56922 15.2507 8.06255 15.9573 8.31457ZM17.0212 4.25535C17.3033 4.25535 17.5739 4.36743 17.7734 4.56693C17.9729 4.76644 18.085 5.03703 18.085 5.31917C18.085 5.60132 17.9729 5.87191 17.7734 6.07142C17.5739 6.27092 17.3033 6.383 17.0212 6.383C16.739 6.383 16.4684 6.27092 16.2689 6.07142C16.0694 5.87191 15.9573 5.60132 15.9573 5.31917C15.9573 5.03703 16.0694 4.76644 16.2689 4.56693C16.4684 4.36743 16.739 4.25535 17.0212 4.25535Z" fill="white"/>
<path d="M24.468 13.8298V11.2959C29.3817 8.83908 28.7233 9.84454 28.7233 6.18695C29.4298 5.93479 30.0247 5.44142 30.4032 4.79373C30.7817 4.14603 30.9196 3.38556 30.7924 2.64623C30.6653 1.9069 30.2814 1.23615 29.7083 0.75208C29.1352 0.268012 28.4097 0.00168068 27.6595 0C26.9092 0.00150697 26.1835 0.267746 25.6103 0.751804C25.0371 1.23586 24.6531 1.90669 24.5259 2.6461C24.3988 3.38552 24.5367 4.14608 24.9153 4.79381C25.2939 5.44153 25.889 5.93486 26.5957 6.18689V7.85302C22.8042 9.74876 22.3403 9.76288 22.3403 10.6383V13.8298C22.3403 14.1119 22.4524 14.3825 22.6519 14.582C22.8514 14.7815 23.122 14.8936 23.4042 14.8936C23.6863 14.8936 23.9569 14.7815 24.1564 14.582C24.3559 14.3825 24.468 14.1119 24.468 13.8298ZM27.6595 2.12766C27.9416 2.12766 28.2122 2.23974 28.4117 2.43925C28.6112 2.63875 28.7233 2.90934 28.7233 3.19149C28.7233 3.47363 28.6112 3.74422 28.4117 3.94373C28.2122 4.14324 27.9416 4.25532 27.6595 4.25532C27.3773 4.25532 27.1067 4.14324 26.9072 3.94373C26.7077 3.74422 26.5957 3.47363 26.5957 3.19149C26.5957 2.90934 26.7077 2.63875 26.9072 2.43925C27.1067 2.23974 27.3773 2.12766 27.6595 2.12766Z" fill="white"/>
<path d="M10.6378 17.0214C10.6378 17.3035 10.7499 17.5741 10.9494 17.7736C11.1489 17.9731 11.4195 18.0852 11.7016 18.0852C11.9838 18.0852 12.2543 17.9731 12.4538 17.7736C12.6534 17.5741 12.7654 17.3035 12.7654 17.0214V11.7022C12.7654 11.4201 12.6534 11.1495 12.4538 10.95C12.2543 10.7505 11.9838 10.6384 11.7016 10.6384H6.18695C5.93479 9.93188 5.44142 9.33698 4.79373 8.95848C4.14603 8.57998 3.38556 8.44216 2.64623 8.56928C1.9069 8.69641 1.23615 9.08033 0.75208 9.65343C0.268012 10.2265 0.00168068 10.9521 0 11.7022C0.00150826 12.4525 0.26774 13.1782 0.751804 13.7514C1.23587 14.3246 1.90671 14.7086 2.64613 14.8358C3.38556 14.9629 4.14612 14.8251 4.79386 14.4464C5.44159 14.0678 5.93493 13.4727 6.18695 12.7661H10.6378V17.0214ZM3.19149 12.7661C2.90934 12.7661 2.63875 12.654 2.43925 12.4545C2.23974 12.255 2.12766 11.9844 2.12766 11.7022C2.12766 11.4201 2.23974 11.1495 2.43925 10.95C2.63875 10.7505 2.90934 10.6384 3.19149 10.6384C3.47363 10.6384 3.74422 10.7505 3.94373 10.95C4.14324 11.1495 4.25532 11.4201 4.25532 11.7022C4.25532 11.9844 4.14324 12.255 3.94373 12.4545C3.74422 12.654 3.47363 12.7661 3.19149 12.7661Z" fill="white"/>
</g>
<defs>
<clipPath id="clip0_504_3554">
<rect width="40.4255" height="50" fill="white"/>
</clipPath>
</defs>
</svg>
