<svg width="300" height="31" viewBox="0 0 300 31" fill="none" xmlns="http://www.w3.org/2000/svg">
<path d="M287.61 22.4827H287.573L287.61 22.5803V22.4827ZM270.849 22.801C270.975 23.1249 271.144 23.4297 271.35 23.7073V22.6804L270.849 22.801ZM17.4532 21.0117L2.50656 1.54227H0V25.838H2.60933V5.91417L17.9269 25.838H20.0525V1.54227H17.4532V21.0117ZM41.8169 17.0198C41.8169 17.2765 41.8169 17.5332 41.7818 17.9594H27.888C28.2615 21.7408 30.9735 23.928 34.0566 23.928C36.4629 23.928 38.1573 22.9217 39.571 21.3942L41.1978 22.8858C39.4432 24.8984 37.3001 26.2539 33.9789 26.2539C29.1663 26.2539 25.236 22.4699 25.236 16.8811C25.236 11.6749 28.7928 7.51095 33.6405 7.51095C38.8341 7.51095 41.8169 11.7442 41.8169 17.0198ZM39.1725 15.8055C38.8692 12.5426 37.0394 9.7675 33.5879 9.7675C30.58 9.7675 28.2665 12.3347 27.893 15.8055H39.1725ZM49.9156 2.47929H47.3063V7.89346H44.8674V10.2553H47.3088V21.081C47.3088 24.7264 49.4419 26.1486 52.2542 26.1486C53.3516 26.1656 54.4357 25.9008 55.4075 25.3785V23.0911C54.622 23.5067 53.75 23.7216 52.8658 23.7175C51.1112 23.7175 49.9181 22.9191 49.9181 20.7319V10.2553H55.4752V7.89346H49.9156V2.47929ZM77.6006 22.2979L72.8556 7.82415H70.685L65.9776 22.2979L61.3681 7.89346H58.5883L64.7219 25.9766H67.0279L71.7728 11.8135L76.4826 25.9766H78.7536L84.9197 7.89346H82.2151L77.6006 22.2979ZM105.591 16.8118V16.8811C105.598 18.1168 105.365 19.3416 104.906 20.4842C104.446 21.6268 103.77 22.6644 102.915 23.5366C102.06 24.4088 101.045 25.0982 99.9277 25.5647C98.8104 26.0312 97.6137 26.2655 96.4073 26.2539C91.1435 26.2539 87.326 22.0181 87.326 16.9505V16.8811C87.3558 14.4264 88.3266 12.0821 90.0288 10.3539C91.7311 8.62559 94.0285 7.6519 96.4254 7.6428C98.8223 7.63371 101.127 8.58994 102.841 10.3052C104.556 12.0205 105.544 14.3574 105.591 16.8118ZM102.914 16.8811C102.914 13.0304 100.102 9.87019 96.3972 9.87019C92.6023 9.87019 89.993 13.0304 89.993 16.8016V16.8709C89.993 20.7216 92.7703 23.8485 96.4649 23.8485C100.26 23.8485 102.904 20.7242 102.904 16.9402L102.914 16.8811ZM112.91 12.5786V7.89346H110.301V25.838H112.91V18.6859C112.91 13.2717 116.029 10.4709 119.856 10.4709H120.064V7.58027C116.738 7.43137 114.196 9.59293 112.91 12.5786ZM139.342 7.89346H136.084L126.634 17.9927V0.5H124.025V25.838H126.634V21.1504L130.193 17.4716L136.46 25.838H139.575L131.988 15.5976L139.342 7.89346ZM163.332 18.6525L157.131 1.54227H151.366L160.959 26.01H165.566L175.158 1.54227H169.534L163.332 18.6525ZM177.7 5.18509H183.122V0.5H177.7V5.18509ZM177.835 25.838H182.979V7.2337H177.835V25.838ZM195.659 14.5912C193.694 13.8981 191.965 13.4103 191.965 12.3706V12.309C191.965 11.5799 192.609 11.0254 193.865 11.0254C195.186 11.0254 196.98 11.6826 198.778 12.7608L200.743 9.11544C198.735 7.74887 196.386 7.00214 193.975 6.96415C190.315 6.96415 187.333 9.0795 187.333 12.8686V12.938C187.333 16.5474 190.213 17.7617 192.754 18.5267C194.76 19.1505 196.514 19.533 196.514 20.678V20.7473C196.514 21.5816 195.837 22.1361 194.346 22.1361C192.652 22.1361 190.586 21.366 188.619 19.9155L186.408 23.3735C188.627 25.1771 191.37 26.1709 194.203 26.1974C198.133 26.1974 201.149 24.3234 201.149 20.1928V20.1235C201.149 16.7091 198.201 15.4589 195.659 14.5912ZM205.079 25.838H210.23V7.2337H205.079V25.838ZM204.944 5.18509H210.365V0.5H204.944V5.18509ZM234.155 16.5012V16.5705C234.155 22.7831 230.19 26.1846 225.884 26.1846C223.139 26.1846 221.444 24.901 220.224 23.4069V25.838H215.075V0.5H220.226V9.90613C221.48 8.17072 223.209 6.88713 225.886 6.88713C230.122 6.88713 234.155 10.2886 234.155 16.5012ZM229.004 16.5012C229.004 13.4206 226.971 11.3668 224.565 11.3668C222.159 11.3668 220.159 13.4206 220.159 16.5012V16.5705C220.159 19.6511 222.164 21.7049 224.565 21.7049C226.966 21.7049 229.004 19.6922 229.004 16.5705V16.5012ZM242.319 1.22394V0.995465H238.226V4.74354H242.319V1.91965L242.82 1.79386V4.60748H243.465V0.995465H243.056L242.319 1.22394ZM253.571 2.0403V1.33947L253.16 1.46526L253.32 2.11219L253.571 2.0403ZM253.536 7.0848V9.90869H253.571V6.35316L252.764 6.60987L252.924 7.2568L253.536 7.0848ZM253.571 15.0841V14.3627C253.23 14.2344 253.015 13.8082 253.015 13.2614C253.015 12.7095 253.23 12.2885 253.571 12.1652V11.4054C252.759 11.5234 252.222 12.2885 252.222 13.2486C252.222 14.2215 252.751 14.9814 253.571 15.0918V15.0841ZM253.571 19.1916C253.425 18.9471 253.352 18.6643 253.36 18.3778C253.351 18.0912 253.424 17.8082 253.571 17.564V16.6373C252.957 16.894 252.568 17.5691 252.568 18.3829C252.568 19.2019 252.952 19.8745 253.571 20.1235V19.1916ZM263.031 1.85804V4.68193H263.783V1.06221H263.256L262.254 1.37027L262.414 2.0172L263.031 1.85804ZM262.865 13.1536C262.865 13.9469 263.221 14.6015 263.803 14.871V13.8493C263.704 13.6316 263.654 13.3938 263.657 13.1536C263.654 12.9134 263.704 12.6756 263.803 12.4579V11.4362C263.226 11.7109 262.865 12.368 262.865 13.1536ZM261.296 18.288C261.296 17.2457 261.928 16.4293 262.86 16.4293C263.205 16.426 263.54 16.5499 263.803 16.7785V19.7949C263.538 20.027 263.199 20.1528 262.85 20.1492C261.913 20.1492 261.296 19.3431 261.296 18.2982V18.288ZM262.85 17.1327C262.389 17.1327 262.098 17.6102 262.098 18.2674C262.098 18.9272 262.404 19.4149 262.87 19.4149C263.337 19.4149 263.622 18.9323 263.622 18.2777C263.625 17.6359 263.314 17.143 262.85 17.143V17.1327ZM263.026 25.2116V21.5996H262.499L261.497 21.9077L261.657 22.5546L262.269 22.4006V25.2245L263.026 25.2116ZM263.803 22.4853V21.787L263.407 21.9077L263.567 22.5546L263.803 22.4853ZM274.646 4.94891V2.47929H274.022V4.95918L274.646 4.94891ZM272.658 8.28624C272.658 7.24397 273.29 6.42761 274.223 6.42761C274.366 6.42791 274.508 6.44865 274.646 6.48922V7.22343H275.523C275.694 7.54642 275.78 7.90891 275.774 8.27597C275.774 9.31824 275.147 10.1346 274.21 10.1346C273.273 10.1346 272.658 9.34905 272.658 8.30678V8.28624ZM273.451 8.28624C273.451 8.94344 273.756 9.4312 274.223 9.4312C274.689 9.4312 274.975 8.94857 274.975 8.29651C274.975 7.64445 274.664 7.15155 274.202 7.15155C273.741 7.15155 273.451 7.62904 273.451 8.28624ZM276.117 8.28624C276.117 9.32851 276.734 10.1346 277.672 10.1346C277.921 10.1382 278.167 10.0763 278.386 9.95501C278.606 9.83369 278.791 9.6569 278.925 9.44147V7.2337H277.977C278.266 7.398 278.446 7.80104 278.446 8.29651C278.446 8.94857 278.15 9.4312 277.694 9.4312C277.238 9.4312 276.922 8.94344 276.922 8.28624C276.922 7.79078 277.093 7.39543 277.376 7.2337H276.388C276.21 7.55801 276.116 7.92422 276.117 8.29651V8.28624ZM273.14 13.4206C273.14 14.4475 273.736 15.2407 274.644 15.2664V14.5681C274.21 14.5296 273.929 14.0547 273.929 13.4309C273.929 12.7968 274.21 12.3347 274.644 12.3013V11.7442H275.396C275.182 11.6298 274.945 11.5707 274.704 11.5722C273.771 11.5722 273.14 12.3886 273.14 13.4309V13.4206ZM276.975 11.7442H277.952V11.6082H277.426L276.975 11.7442ZM278.912 11.7442H278.89H278.912ZM273.12 20.4238C272.182 20.4238 271.566 19.6177 271.566 18.5755C271.566 17.5332 272.197 16.7168 273.13 16.7168C273.919 16.7168 274.488 17.3022 274.634 18.1185V19.0222C274.493 19.8308 273.922 20.4238 273.125 20.4238H273.12ZM272.368 18.5652C272.368 19.2224 272.673 19.7102 273.14 19.7102C273.606 19.7102 273.892 19.2275 273.892 18.5755C273.892 17.9234 273.581 17.4305 273.12 17.4305C272.658 17.4305 272.368 17.908 272.368 18.5652ZM284.572 9.90099V7.2337H283.82V9.90099H284.572ZM286.487 9.90099V7.2337H285.735V9.90099H286.487ZM295.837 9.96261C296.774 9.96261 297.401 9.14624 297.401 8.1014C297.403 7.80731 297.348 7.51575 297.238 7.24397H296.353C296.529 7.49652 296.617 7.80191 296.604 8.11167C296.604 8.76373 296.308 9.24893 295.852 9.24893C295.395 9.24893 295.08 8.7586 295.08 8.1014C295.07 7.79527 295.158 7.49421 295.33 7.24397H294.659L294.308 8.36326C294.378 9.27717 294.967 9.96261 295.832 9.96261H295.837ZM297.742 8.1014C297.742 9.03586 298.243 9.77777 299.01 9.9241L299.261 9.23096C298.819 9.20272 298.531 8.71753 298.531 8.09113C298.521 7.785 298.609 7.48394 298.782 7.2337H297.912C297.797 7.50773 297.737 7.80297 297.737 8.1014H297.742ZM299.812 7.2337C299.857 7.29331 299.896 7.35688 299.93 7.42367L300 7.2337H299.812ZM285.795 15.0353V11.4131H285.269L284.266 11.7211L284.427 12.368L285.038 12.214V15.0379L285.795 15.0353ZM287.881 15.097C288.082 15.099 288.282 15.0577 288.467 14.9759C288.653 14.8941 288.819 14.7736 288.956 14.622L288.62 13.5952C288.533 14.0675 288.269 14.391 287.891 14.391C287.425 14.391 287.119 13.9007 287.119 13.2435C287.119 12.5863 287.42 12.1088 287.871 12.1088C287.966 12.1107 288.059 12.1344 288.144 12.1781L287.893 11.3951C286.961 11.3951 286.329 12.2114 286.329 13.2537C286.322 14.2909 286.938 15.097 287.876 15.097H287.881ZM292.295 14.7375C292.496 14.5472 292.655 14.3144 292.76 14.0551C292.866 13.7959 292.915 13.5163 292.904 13.2358C292.903 13.1198 292.895 13.004 292.879 12.8892L292.295 14.7375ZM293.145 12.0292L293.23 12.368L293.841 12.214V15.0379H294.593V11.4131H294.067L293.247 11.6698L293.145 12.0292ZM295.15 12.368L295.761 12.214V15.0379H296.513V11.4131H295.987L294.984 11.7211L295.15 12.368ZM297.065 12.368L297.676 12.214V13.5926L298.428 11.5106V11.4156H297.902L296.899 11.7237L297.065 12.368ZM289.355 17.5024L289.856 17.3766L289.64 16.7168L289.189 16.8555L289.355 17.5024ZM290.686 19.9027L289.956 17.7001V20.1723H290.708V19.7538L290.686 19.9027ZM294.378 18.3624C294.378 19.4072 293.751 20.2236 292.814 20.2236C291.876 20.2236 291.26 19.4175 291.26 18.3727C291.259 18.2306 291.272 18.0888 291.297 17.9491L291.46 17.4356C291.577 17.165 291.768 16.935 292.01 16.7737C292.252 16.6123 292.535 16.5266 292.824 16.5269C293.741 16.5115 294.368 17.3176 294.368 18.3598L294.378 18.3624ZM292.814 17.2277C292.352 17.2277 292.062 17.7052 292.062 18.3624C292.062 19.0196 292.368 19.5099 292.834 19.5099C293.3 19.5099 293.586 19.0247 293.586 18.3727C293.576 17.718 293.267 17.2251 292.804 17.2251L292.814 17.2277ZM296.072 16.55H295.546L294.543 16.858L294.704 17.505L295.315 17.3509V20.0336L296.067 17.9542L296.072 16.55ZM296.476 16.8503H296.453V16.8863L296.476 16.8503ZM292.014 23.4942C292.014 24.539 291.387 25.3554 290.45 25.3554C289.513 25.3554 288.896 24.5493 288.896 23.5044C288.896 22.4622 289.528 21.6458 290.46 21.6458C291.392 21.6458 292.014 22.4519 292.014 23.4942ZM290.45 22.3595C289.989 22.3595 289.698 22.837 289.698 23.4942C289.698 24.1514 290.004 24.6417 290.47 24.6417C290.936 24.6417 291.222 24.1565 291.222 23.5044C291.23 22.8524 290.919 22.3595 290.458 22.3595H290.45ZM293.709 21.6818H293.182L292.18 21.9898L292.34 22.6367L292.952 22.4827V25.3066H293.365L293.714 24.3593L293.709 21.6818ZM294.348 22.6136L294.636 21.823L294.09 21.9898L294.25 22.6367L294.348 22.6136ZM282.615 29.8736L282.462 30.2099L282.615 30.2972V29.8736ZM291.613 28.6388C291.614 28.8712 291.58 29.1023 291.513 29.3242C291.229 29.7366 290.892 30.1072 290.51 30.4256C290.361 30.4744 290.206 30.4995 290.049 30.5C289.112 30.5 288.495 29.6939 288.495 28.6491C288.495 27.6068 289.127 26.7904 290.059 26.7904C290.991 26.7904 291.613 27.5965 291.613 28.6388ZM290.049 27.4938C289.588 27.4938 289.297 27.9713 289.297 28.6285C289.297 29.2857 289.603 29.7761 290.069 29.7761C290.535 29.7761 290.821 29.2909 290.821 28.6388C290.834 27.9867 290.523 27.4938 290.061 27.4938H290.049ZM292.786 26.8161L291.784 27.1242L291.944 27.7711L292.445 27.6427C292.563 27.386 292.678 27.1062 292.791 26.8161H292.786ZM287.964 27.155V30.4384H287.212V27.6479C287.017 27.7267 286.809 27.7684 286.6 27.7711C286.432 27.7713 286.265 27.761 286.099 27.7403C286.216 28.0209 286.275 28.3234 286.272 28.6285C286.272 29.6734 285.645 30.4897 284.707 30.4897C283.77 30.4897 283.173 29.7196 283.153 28.6927L283.905 27.0215L284.189 26.3925C284.189 26.3925 285.379 27.0523 286.43 27.1242H286.445C286.553 27.1241 286.662 27.1173 286.77 27.1036C287.628 26.9265 288.189 25.9125 288.189 25.9125L281.07 7.23883H281.655L282.053 8.2657C282.056 8.21439 282.056 8.16298 282.053 8.11167C282.066 7.80191 281.978 7.49652 281.802 7.24397H282.687C282.797 7.51575 282.852 7.80731 282.85 8.1014C282.86 8.55043 282.726 8.9905 282.469 9.35419L283.274 11.431L283.331 11.4131H283.858V12.938L285.888 18.1904C285.958 17.2354 286.567 16.5115 287.447 16.5115C288.375 16.5115 289.001 17.3176 289.001 18.3598C289.001 19.4047 288.375 20.221 287.437 20.221C287.125 20.2242 286.82 20.1243 286.567 19.9361L287.302 21.8332L287.828 21.6715H288.355V24.5621L288.888 25.9433C288.648 26.3938 288.341 26.8027 287.976 27.155H287.964ZM287.462 19.5176C287.928 19.5176 288.214 19.0324 288.214 18.3804C288.214 17.7283 287.903 17.2354 287.442 17.2354C286.981 17.2354 286.69 17.7129 286.69 18.3701C286.693 19.0273 287.001 19.5176 287.465 19.5176H287.462ZM287.608 22.5982V22.4904H287.57L287.608 22.5982ZM283.948 28.6465C283.948 29.3037 284.254 29.794 284.72 29.794C285.186 29.794 285.472 29.3088 285.472 28.6568C285.472 28.0047 285.161 27.5118 284.7 27.5118C284.239 27.5118 283.948 27.9893 283.948 28.6465ZM261.226 12.2166L261.569 12.1293V14.9532H262.321V11.3309H261.795L261.216 11.508V9.62887C261.458 9.7978 261.745 9.88732 262.038 9.88559C262.976 9.88559 263.602 9.06923 263.602 8.02439C263.603 7.76163 263.558 7.50084 263.469 7.25424H262.612C262.749 7.49195 262.817 7.76412 262.81 8.03979C262.81 8.69442 262.514 9.17705 262.058 9.17705C261.602 9.17705 261.284 8.68929 261.284 8.02952C261.277 7.7598 261.343 7.49343 261.474 7.25937H258.652V25.838H261.229L261.226 12.2166ZM258.516 1.03911H258.624C258.687 1.03936 258.75 1.04364 258.812 1.05194H261.116V1.14693L261.351 1.07505H261.878V4.68449H261.126V4.74354H258.526V1.03911H258.516ZM261.116 4.28658V1.86317V4.28658ZM274.481 26.1486C273.519 26.174 272.566 25.9496 271.711 25.4966H271.693C271.573 25.4299 271.456 25.3571 271.343 25.2784V25.263C270.27 24.4928 269.666 23.3016 269.573 21.8589C269.548 21.4789 269.528 20.9835 269.513 20.4161H269.498V19.6819C269.443 16.4524 269.498 11.7442 269.498 11.7442H267.33V7.2337H269.498V2.47929H270.894C270.802 2.6908 270.757 2.92043 270.761 3.15189C270.761 3.80909 271.067 4.29685 271.533 4.29685C271.999 4.29685 272.285 3.81422 272.285 3.16216C272.288 2.92669 272.24 2.69342 272.145 2.47929H272.979C273.045 2.69717 273.078 2.92393 273.077 3.15189C273.077 4.19416 272.45 5.01053 271.513 5.01053C271.193 5.01389 270.881 4.90922 270.626 4.71273V6.76647L271.593 6.47125H272.12V10.091H271.368V7.26707L270.756 7.4211L270.636 6.93334V8.21693H270.428C270.428 8.24003 270.428 8.26314 270.428 8.28881C270.428 9.33108 269.801 10.1474 268.864 10.1474C268.679 10.1481 268.497 10.1142 268.325 10.0473V10.7379H270.633V11.6954C270.826 11.6075 271.034 11.5629 271.245 11.5645C272.172 11.5645 272.799 12.3706 272.799 13.4129C272.799 14.4552 272.172 15.2715 271.235 15.2715C271.028 15.2727 270.823 15.229 270.633 15.1432V17.048C270.831 17.2383 270.986 17.4695 271.089 17.7264C271.192 17.9832 271.24 18.2596 271.23 18.537C271.239 18.8147 271.191 19.0913 271.088 19.3485C270.985 19.6056 270.83 19.8375 270.633 20.0285V21.6535C270.634 21.811 270.648 21.9681 270.673 22.1233L271.576 21.8486H272.102V24.462C272.317 24.6147 272.556 24.7284 272.809 24.7983C272.952 24.8342 273.102 24.8676 273.255 24.8984V22.6778L272.643 22.8319L272.483 22.1849L273.486 21.8769H274.012V25.0191C274.386 25.0725 274.764 25.0863 275.14 25.0602H275.165V22.6778L274.553 22.8319L274.393 22.1849L275.396 21.8769H275.922V24.9267C276.173 24.8702 276.436 24.8034 276.686 24.729C276.528 24.4115 276.448 24.0588 276.453 23.7021C276.453 22.6598 277.085 21.8435 278.017 21.8435C278.311 21.8414 278.597 21.931 278.84 22.1002V25.0781C278.84 25.0781 277.534 26.1486 274.481 26.1486ZM277.255 23.6996C277.247 23.9767 277.315 24.2506 277.451 24.4902C278.085 24.2695 278.586 24.0564 278.769 23.9768C278.782 23.8919 278.789 23.8061 278.789 23.7201C278.789 23.068 278.479 22.5751 278.017 22.5751C277.556 22.5751 277.266 23.0526 277.266 23.7098L277.255 23.6996ZM268.325 9.12827C268.383 9.22314 268.464 9.30148 268.56 9.35617C268.656 9.41086 268.764 9.44018 268.874 9.44147C269.34 9.44147 269.626 8.95884 269.626 8.30678C269.626 8.27854 269.626 8.25287 269.626 8.22463H268.32L268.325 9.12827ZM270.633 12.6966V14.1548C270.686 14.2771 270.771 14.3815 270.879 14.456C270.988 14.5306 271.114 14.5721 271.245 14.5758C271.711 14.5758 271.997 14.0932 271.997 13.4411C271.997 12.7891 271.686 12.2962 271.225 12.2962C271.1 12.3004 270.978 12.34 270.874 12.4107C270.769 12.4814 270.686 12.5804 270.633 12.6966ZM271.34 23.7073V22.6804L270.839 22.8036C270.965 23.1265 271.134 23.4305 271.34 23.7073ZM248.42 1.11612H251.884V1.27015L252.253 1.1572H252.779V4.77691H252.027V1.95302L251.894 1.98639V6.52002C252.129 6.70567 252.317 6.94654 252.442 7.22225C252.566 7.49796 252.624 7.8004 252.611 8.10397C252.624 8.40819 252.565 8.71115 252.441 8.98758C252.316 9.264 252.129 9.50589 251.894 9.69305V17.1687C252.127 17.5241 252.248 17.9445 252.24 18.3727C252.248 18.8016 252.127 19.2227 251.894 19.5792V21.8152C252.105 21.7045 252.339 21.6472 252.576 21.6484C252.949 21.6444 253.308 21.789 253.579 22.0514V24.9652C253.309 25.2295 252.949 25.3767 252.576 25.3759C252.343 25.3775 252.112 25.3221 251.904 25.2142V25.838H248.42V1.11612ZM253.328 23.5122C253.328 22.8601 253.017 22.3672 252.556 22.3672C252.399 22.3755 252.248 22.4358 252.127 22.539C252.006 22.6422 251.921 22.7828 251.884 22.9397V24.0718C251.922 24.231 252.009 24.3735 252.131 24.4788C252.254 24.5841 252.406 24.6465 252.566 24.6571C253.032 24.6571 253.318 24.1745 253.318 23.5224L253.328 23.5122ZM242.319 25.8226H238.226V7.2337H242.319V8.88953C242.528 8.63077 242.635 8.30084 242.617 7.96534C242.622 7.71511 242.567 7.46751 242.457 7.24397H243.302C243.314 7.28504 243.327 7.32612 243.337 7.36719V8.55323C243.279 8.8233 243.155 9.07398 242.977 9.28184C242.799 9.4897 242.573 9.64796 242.319 9.74183V11.716C242.449 11.5706 242.606 11.4534 242.781 11.3713C242.955 11.2893 243.145 11.2441 243.337 11.2385V11.9496C242.906 11.9855 242.627 12.4476 242.627 13.0792C242.627 13.7055 242.906 14.1728 243.337 14.2164V14.9352C243.145 14.931 242.957 14.8877 242.782 14.8079C242.607 14.7281 242.45 14.6134 242.319 14.4706V16.4293C242.573 16.5217 242.8 16.6792 242.979 16.8867C243.157 17.0943 243.28 17.3452 243.337 17.6154V18.8014C243.282 19.0752 243.16 19.3301 242.982 19.5418C242.804 19.7535 242.575 19.9148 242.319 20.0105V21.6458L242.667 21.538H243.194V25.1449H242.442V22.321L242.329 22.3467L242.319 25.8226ZM242.319 17.2868V19.1428C242.528 18.8841 242.635 18.5541 242.617 18.2186C242.631 17.886 242.525 17.5599 242.319 17.3022V17.2868Z" fill="#F8F8F8"/>
</svg>
