<svg width="1606" height="121" viewBox="0 0 1606 121" fill="none" xmlns="http://www.w3.org/2000/svg">
<circle opacity="0.2" cx="84.291" cy="114.291" r="6.29097" fill="#3A53A4"/>
<circle opacity="0.2" cx="1282.53" cy="114.291" r="6.29097" fill="#B87626"/>
<circle opacity="0.4" cx="507.198" cy="114.291" r="6.29097" fill="#A3A1A7"/>
<circle opacity="0.4" cx="225.26" cy="114.291" r="6.29097" fill="#3A53A4"/>
<circle opacity="0.8" cx="1423.5" cy="114.291" r="6.29097" fill="#B87626"/>
<circle opacity="0.4" cx="1564.47" cy="114.291" r="6.29097" fill="#B87626"/>
<circle opacity="0.2" cx="1599.71" cy="114.291" r="6.29097" fill="#B87626"/>
<circle opacity="0.4" cx="648.167" cy="114.291" r="6.29097" fill="#A3A1A7"/>
<circle opacity="0.4" cx="1000.59" cy="114.291" r="6.29097" fill="#B87626"/>
<circle opacity="0.9" cx="366.229" cy="114.291" r="6.29097" fill="#3A53A4"/>
<circle opacity="0.2" cx="789.137" cy="114.291" r="6.29097" fill="#B87626"/>
<circle opacity="0.4" cx="1141.56" cy="114.291" r="6.29097" fill="#B87626"/>
<circle opacity="0.8" cx="154.776" cy="114.291" r="6.29097" fill="#3A53A4"/>
<circle opacity="0.4" cx="1353.01" cy="114.291" r="6.29097" fill="#B87626"/>
<circle opacity="0.2" cx="1493.98" cy="114.291" r="6.29097" fill="#B87626"/>
<circle opacity="0.2" cx="577.683" cy="114.291" r="6.29097" fill="#A3A1A7"/>
<circle opacity="0.4" cx="930.106" cy="114.291" r="6.29097" fill="#B87626"/>
<circle opacity="0.2" cx="295.745" cy="114.291" r="6.29097" fill="#3A53A4"/>
<circle opacity="0.2" cx="718.652" cy="114.291" r="6.29097" fill="#A3A1A7"/>
<circle opacity="0.8" cx="1071.07" cy="114.291" r="6.29097" fill="#B87626"/>
<circle opacity="0.4" cx="436.714" cy="114.291" r="6.29097" fill="#3A53A4"/>
<circle opacity="0.2" cx="859.621" cy="114.291" r="6.29097" fill="#B87626"/>
<circle opacity="0.8" cx="1212.04" cy="114.291" r="6.29097" fill="#B87626"/>
<circle opacity="0.4" cx="119.533" cy="114.291" r="6.29097" fill="#3A53A4"/>
<circle opacity="0.8" cx="1317.77" cy="114.291" r="6.29097" fill="#B87626"/>
<circle opacity="0.4" cx="1458.74" cy="114.291" r="6.29097" fill="#B87626"/>
<circle opacity="0.2" cx="542.441" cy="114.291" r="6.29097" fill="#3A53A4"/>
<circle opacity="0.8" cx="260.502" cy="114.291" r="6.29097" fill="#3A53A4"/>
<circle opacity="0.8" cx="683.41" cy="114.291" r="6.29097" fill="#3A53A4"/>
<circle opacity="0.2" cx="1035.83" cy="114.291" r="6.29097" fill="#A3A1A7"/>
<circle opacity="0.2" cx="401.471" cy="114.291" r="6.29097" fill="#3A53A4"/>
<circle opacity="0.4" cx="824.379" cy="114.291" r="6.29097" fill="#A3A1A7"/>
<circle opacity="0.2" cx="1176.8" cy="114.291" r="6.29097" fill="#B87626"/>
<circle opacity="0.2" cx="190.018" cy="114.291" r="6.29097" fill="#3A53A4"/>
<circle opacity="0.2" cx="1388.26" cy="114.291" r="6.29097" fill="#B87626"/>
<circle opacity="0.8" cx="1529.22" cy="114.291" r="6.29097" fill="#B87626"/>
<circle opacity="0.4" cx="612.925" cy="114.291" r="6.29097" fill="#3A53A4"/>
<circle opacity="0.2" cx="965.348" cy="114.291" r="6.29097" fill="#A3A1A7"/>
<circle opacity="0.4" cx="330.987" cy="114.291" r="6.29097" fill="#3A53A4"/>
<circle opacity="0.4" cx="753.894" cy="114.291" r="6.29097" fill="#A3A1A7"/>
<circle opacity="0.4" cx="1106.32" cy="114.291" r="6.29097" fill="#B87626"/>
<circle opacity="0.8" cx="471.956" cy="114.291" r="6.29097" fill="#3A53A4"/>
<circle opacity="0.2" cx="894.863" cy="114.291" r="6.29097" fill="#A3A1A7"/>
<circle opacity="0.4" cx="1247.29" cy="114.291" r="6.29097" fill="#B87626"/>
<circle opacity="0.2" cx="84.291" cy="6.29097" r="6.29097" fill="#3A53A4"/>
<circle opacity="0.2" cx="1282.53" cy="6.29097" r="6.29097" fill="#B87626"/>
<circle opacity="0.4" cx="507.198" cy="6.29097" r="6.29097" fill="#A3A1A7"/>
<circle opacity="0.4" cx="225.26" cy="6.29097" r="6.29097" fill="#3A53A4"/>
<circle opacity="0.8" cx="1423.5" cy="6.29097" r="6.29097" fill="#B87626"/>
<circle opacity="0.4" cx="1564.47" cy="6.29097" r="6.29097" fill="#B87626"/>
<circle opacity="0.2" cx="1599.71" cy="6.29097" r="6.29097" fill="#B87626"/>
<circle opacity="0.4" cx="648.167" cy="6.29097" r="6.29097" fill="#A3A1A7"/>
<circle opacity="0.4" cx="1000.59" cy="6.29097" r="6.29097" fill="#B87626"/>
<circle opacity="0.9" cx="366.229" cy="6.29097" r="6.29097" fill="#3A53A4"/>
<circle opacity="0.2" cx="789.137" cy="6.29097" r="6.29097" fill="#B87626"/>
<circle opacity="0.4" cx="1141.56" cy="6.29097" r="6.29097" fill="#B87626"/>
<circle opacity="0.8" cx="154.776" cy="6.29097" r="6.29097" fill="#3A53A4"/>
<circle opacity="0.4" cx="1353.01" cy="6.29097" r="6.29097" fill="#B87626"/>
<circle opacity="0.2" cx="1493.98" cy="6.29097" r="6.29097" fill="#B87626"/>
<circle opacity="0.2" cx="577.683" cy="6.29097" r="6.29097" fill="#A3A1A7"/>
<circle opacity="0.4" cx="930.106" cy="6.29097" r="6.29097" fill="#B87626"/>
<circle opacity="0.2" cx="295.745" cy="6.29097" r="6.29097" fill="#3A53A4"/>
<circle opacity="0.2" cx="718.652" cy="6.29097" r="6.29097" fill="#A3A1A7"/>
<circle opacity="0.8" cx="1071.07" cy="6.29097" r="6.29097" fill="#B87626"/>
<circle opacity="0.4" cx="436.714" cy="6.29097" r="6.29097" fill="#3A53A4"/>
<circle opacity="0.2" cx="859.621" cy="6.29097" r="6.29097" fill="#B87626"/>
<circle opacity="0.8" cx="1212.04" cy="6.29097" r="6.29097" fill="#B87626"/>
<circle opacity="0.4" cx="119.533" cy="6.29097" r="6.29097" fill="#3A53A4"/>
<circle opacity="0.8" cx="1317.77" cy="6.29097" r="6.29097" fill="#B87626"/>
<circle opacity="0.4" cx="1458.74" cy="6.29097" r="6.29097" fill="#B87626"/>
<circle opacity="0.2" cx="542.441" cy="6.29097" r="6.29097" fill="#3A53A4"/>
<circle opacity="0.8" cx="260.502" cy="6.29097" r="6.29097" fill="#3A53A4"/>
<circle opacity="0.8" cx="683.41" cy="6.29097" r="6.29097" fill="#3A53A4"/>
<circle opacity="0.2" cx="1035.83" cy="6.29097" r="6.29097" fill="#A3A1A7"/>
<circle opacity="0.2" cx="401.471" cy="6.29097" r="6.29097" fill="#3A53A4"/>
<circle opacity="0.4" cx="824.379" cy="6.29097" r="6.29097" fill="#A3A1A7"/>
<circle opacity="0.2" cx="1176.8" cy="6.29097" r="6.29097" fill="#B87626"/>
<circle opacity="0.2" cx="190.018" cy="6.29097" r="6.29097" fill="#3A53A4"/>
<circle opacity="0.2" cx="1388.26" cy="6.29097" r="6.29097" fill="#B87626"/>
<circle opacity="0.8" cx="1529.22" cy="6.29097" r="6.29097" fill="#B87626"/>
<circle opacity="0.4" cx="612.925" cy="6.29097" r="6.29097" fill="#3A53A4"/>
<circle opacity="0.2" cx="965.348" cy="6.29097" r="6.29097" fill="#A3A1A7"/>
<circle opacity="0.4" cx="330.987" cy="6.29097" r="6.29097" fill="#3A53A4"/>
<circle opacity="0.4" cx="753.894" cy="6.29097" r="6.29097" fill="#A3A1A7"/>
<circle opacity="0.4" cx="1106.32" cy="6.29097" r="6.29097" fill="#B87626"/>
<circle opacity="0.8" cx="471.956" cy="6.29097" r="6.29097" fill="#3A53A4"/>
<circle opacity="0.2" cx="894.863" cy="6.29097" r="6.29097" fill="#A3A1A7"/>
<circle opacity="0.4" cx="1247.29" cy="6.29097" r="6.29097" fill="#B87626"/>
<circle opacity="0.2" cx="6.29097" cy="60.291" r="6.29097" fill="#3A53A4"/>
<circle opacity="0.2" cx="1204.53" cy="60.291" r="6.29097" fill="#B87626"/>
<circle opacity="0.4" cx="429.198" cy="60.291" r="6.29097" fill="#A3A1A7"/>
<circle opacity="0.4" cx="147.26" cy="60.291" r="6.29097" fill="#3A53A4"/>
<circle opacity="0.8" cx="1345.5" cy="60.291" r="6.29097" fill="#B87626"/>
<circle opacity="0.4" cx="1486.47" cy="60.291" r="6.29097" fill="#B87626"/>
<circle opacity="0.2" cx="1521.71" cy="60.291" r="6.29097" fill="#B87626"/>
<circle opacity="0.4" cx="570.167" cy="60.291" r="6.29097" fill="#A3A1A7"/>
<circle opacity="0.4" cx="922.59" cy="60.291" r="6.29097" fill="#B87626"/>
<circle opacity="0.9" cx="288.229" cy="60.291" r="6.29097" fill="#3A53A4"/>
<circle opacity="0.2" cx="711.137" cy="60.291" r="6.29097" fill="#B87626"/>
<circle opacity="0.4" cx="1063.56" cy="60.291" r="6.29097" fill="#B87626"/>
<circle opacity="0.8" cx="76.7756" cy="60.291" r="6.29097" fill="#3A53A4"/>
<circle opacity="0.4" cx="1275.01" cy="60.291" r="6.29097" fill="#B87626"/>
<circle opacity="0.2" cx="1415.98" cy="60.291" r="6.29097" fill="#B87626"/>
<circle opacity="0.2" cx="499.683" cy="60.291" r="6.29097" fill="#A3A1A7"/>
<circle opacity="0.4" cx="852.106" cy="60.291" r="6.29097" fill="#B87626"/>
<circle opacity="0.2" cx="217.745" cy="60.291" r="6.29097" fill="#3A53A4"/>
<circle opacity="0.4" cx="640.652" cy="60.291" r="6.29097" fill="#A3A1A7"/>
<circle opacity="0.8" cx="993.075" cy="60.291" r="6.29097" fill="#B87626"/>
<circle opacity="0.4" cx="358.714" cy="60.291" r="6.29097" fill="#3A53A4"/>
<circle opacity="0.2" cx="781.621" cy="60.291" r="6.29097" fill="#B87626"/>
<circle opacity="0.8" cx="1134.04" cy="60.291" r="6.29097" fill="#B87626"/>
<circle opacity="0.4" cx="41.5332" cy="60.291" r="6.29097" fill="#3A53A4"/>
<circle opacity="0.8" cx="1239.77" cy="60.291" r="6.29097" fill="#B87626"/>
<circle opacity="0.4" cx="1380.74" cy="60.291" r="6.29097" fill="#B87626"/>
<circle opacity="0.2" cx="464.441" cy="60.291" r="6.29097" fill="#3A53A4"/>
<circle opacity="0.8" cx="182.502" cy="60.291" r="6.29097" fill="#3A53A4"/>
<circle opacity="0.8" cx="605.41" cy="60.291" r="6.29097" fill="#3A53A4"/>
<circle opacity="0.2" cx="957.832" cy="60.291" r="6.29097" fill="#A3A1A7"/>
<circle opacity="0.2" cx="323.471" cy="60.291" r="6.29097" fill="#3A53A4"/>
<circle opacity="0.4" cx="746.379" cy="60.291" r="6.29097" fill="#A3A1A7"/>
<circle opacity="0.2" cx="1098.8" cy="60.291" r="6.29097" fill="#B87626"/>
<circle opacity="0.2" cx="112.018" cy="60.291" r="6.29097" fill="#3A53A4"/>
<circle opacity="0.2" cx="1310.26" cy="60.291" r="6.29097" fill="#B87626"/>
<circle opacity="0.8" cx="1451.22" cy="60.291" r="6.29097" fill="#B87626"/>
<circle opacity="0.4" cx="534.925" cy="60.291" r="6.29097" fill="#3A53A4"/>
<circle opacity="0.2" cx="887.348" cy="60.291" r="6.29097" fill="#A3A1A7"/>
<circle opacity="0.4" cx="252.987" cy="60.291" r="6.29097" fill="#3A53A4"/>
<circle opacity="0.2" cx="675.894" cy="60.291" r="6.29097" fill="#A3A1A7"/>
<circle opacity="0.4" cx="1028.32" cy="60.291" r="6.29097" fill="#A3A1A7"/>
<circle opacity="0.8" cx="393.956" cy="60.291" r="6.29097" fill="#3A53A4"/>
<circle opacity="0.2" cx="816.863" cy="60.291" r="6.29097" fill="#A3A1A7"/>
<circle opacity="0.4" cx="1169.29" cy="60.291" r="6.29097" fill="#B87626"/>
</svg>
